<svg xmlns="http://www.w3.org/2000/svg" width="512" height="512" viewBox="0 0 512 512" version="1.1">
	<path d="M 240 36 L 240 44 232 44 L 224 44 224 52 L 224 60 208 60 L 192 60 192 68 L 192 76 184 76 L 176 76 176 84 L 176 92 168 92 L 160 92 160 100 L 160 108 144 108 L 128 108 128 116 L 128 124 120 124 L 112 124 112 132 L 112 140 104 140 L 96 140 96 148 L 96 156 80 156 L 64 156 64 164 L 64 172 56 172 L 48 172 48 204 L 48 236 64 236 L 80 236 80 340 L 80 444 264 444 L 448 444 448 340 L 448 236 456 236 L 464 236 464 204 L 464 172 456 172 L 448 172 448 164 L 448 156 432 156 L 416 156 416 148 L 416 140 408 140 L 400 140 400 92 L 400 44 368 44 L 336 44 336 60 L 336 76 328 76 L 320 76 320 68 L 320 60 304 60 L 288 60 288 52 L 288 44 280 44 L 272 44 272 36 L 272 28 256 28 L 240 28 240 36" stroke="none" fill="black" fill-rule="evenodd"/>
</svg>