<svg xmlns="http://www.w3.org/2000/svg" width="512" height="512" viewBox="0 0 512 512" version="1.1">
	<path d="M 239 52.566 C 237.625 52.802, 232.450 53.499, 227.500 54.116 C 207.187 56.648, 184.695 63.658, 164.500 73.751 C 143.982 84.005, 128.948 94.927, 111.938 111.938 C 80.620 143.256, 62.229 179.209, 54.337 224.543 C 51.915 238.454, 51.915 272.546, 54.337 286.457 C 62.229 331.791, 80.620 367.744, 111.938 399.062 C 143.256 430.380, 179.209 448.771, 224.543 456.663 C 238.454 459.085, 272.546 459.085, 286.457 456.663 C 331.791 448.771, 367.744 430.380, 399.062 399.062 C 430.380 367.744, 448.771 331.791, 456.663 286.457 C 459.085 272.546, 459.085 238.454, 456.663 224.543 C 448.771 179.209, 430.380 143.256, 399.062 111.938 C 367.869 80.745, 331.303 61.997, 286.986 54.475 C 278.023 52.953, 244.509 51.620, 239 52.566" stroke="none" fill="black" fill-rule="evenodd"/>
</svg>