<svg xmlns="http://www.w3.org/2000/svg" width="512" height="512" viewBox="0 0 512 512" version="1.1">
	<path d="M 240 24 L 240 32 232 32 L 224 32 224 40 L 224 48 216 48 L 208 48 208 56 L 208 64 200 64 L 192 64 192 72 L 192 80 184 80 L 176 80 176 88 L 176 96 168 96 L 160 96 160 104 L 160 112 152 112 L 144 112 144 120 L 144 128 136 128 L 128 128 128 136 L 128 144 120 144 L 112 144 112 152 L 112 160 104 160 L 96 160 96 168 L 96 176 88 176 L 80 176 80 184 L 80 192 72 192 L 64 192 64 200 L 64 208 56 208 L 48 208 48 216 L 48 224 56 224 L 64 224 64 368 L 64 512 255.500 512 L 447 512 447 368 L 447 224 455 224 L 463 224 463 216 L 463 208 455 208 L 447 208 447 200 L 447 192 439 192 L 431 192 431 184 L 431 176 423 176 L 415 176 415 168 L 415 160 407 160 L 399 160 399 152 L 399 144 391 144 L 383 144 383 136 L 383 128 375 128 L 367 128 367 120 L 367 112 359 112 L 351 112 351 104 L 351 96 343 96 L 335 96 335 88 L 335 80 327 80 L 319 80 319 72 L 319 64 311 64 L 303 64 303 56 L 303 48 295 48 L 287 48 287 40 L 287 32 279 32 L 271 32 271 24 L 271 16 255.500 16 L 240 16 240 24 M 351 456 L 351 464 359 464 L 367 464 367 456 L 367 448 359 448 L 351 448 351 456" stroke="none" fill="black" fill-rule="evenodd"/>
</svg>